Coordinates
version=1
nRows=7
nColumns=40
inDegrees=yes
endheader
time	pelvis_tilt	pelvis_list	pelvis_rotation	pelvis_tx	pelvis_ty	pelvis_tz	hip_flexion_r	hip_adduction_r	hip_rotation_r	knee_angle_r	knee_angle_r_beta	ankle_angle_r	subtalar_angle_r	mtp_angle_r	hip_flexion_l	hip_adduction_l	hip_rotation_l	knee_angle_l	knee_angle_l_beta	ankle_angle_l	subtalar_angle_l	mtp_angle_l	lumbar_extension	lumbar_bending	lumbar_rotation	arm_flex_r	arm_add_r	arm_rot_r	elbow_flex_r	pro_sup_r	wrist_flex_r	wrist_dev_r	arm_flex_l	arm_add_l	arm_rot_l	elbow_flex_l	pro_sup_l	wrist_flex_l	wrist_dev_l
1760624601.56900001	      9.31862357	      0.38402145	      6.49725432	      0.02470386	      0.89930950	      0.00024254	     80.00000000	     -7.00000000	      0.00000000	     80.00000000	      1.39626340	      0.00000000	      0.00000000	      0.00000000	     80.00000000	     -7.00000000	      0.00000000	     80.00000000	      1.39626340	      0.00000000	      0.00000000	      0.00000000	    -13.32368807	      2.38507496	      4.51399624	    -13.53661610	    -20.23853618	      2.69190584	      0.00000000	     52.79674895	     63.15750727	    -24.99999983	     14.81550677	    -19.53269202	      5.61422083	     29.47887591	     92.63072666	    -13.86144950	     31.72486843
1760624601.60299993	      9.64061684	      0.47360190	      6.91791552	      0.02829205	      0.90098659	      0.00151530	     80.00000000	     -7.00000000	      0.00000000	     80.00000000	      1.39626340	      0.00000000	      0.00000000	      0.00000000	     80.00000000	     -7.00000000	      0.00000000	     80.00000000	      1.39626340	      0.00000000	      0.00000000	      0.00000000	    -14.15023608	      2.18592209	      4.24522522	    -16.05055228	    -22.86620308	     -1.44072286	      0.00000000	     54.66463319	     70.00000021	    -24.99999983	     17.75438069	    -23.12645530	      3.92252274	     31.52158514	     93.98303998	    -13.68814919	     33.75703806
1760624601.63599992	     10.51870000	      0.43742349	      8.58406475	      0.03547447	      0.90650577	      0.00060181	     80.00000000	     -7.00000000	      0.00000000	     80.00000000	      1.39626340	      0.00000000	      0.00000000	      0.00000000	     80.00000000	     -7.00000000	      0.00000000	     80.00000000	      1.39626340	      0.00000000	      0.00000000	      0.00000000	    -15.76095216	      2.38325300	      2.90431352	    -17.58144971	    -24.72519801	     -4.53286457	      0.00000000	     55.97114718	     70.00000021	    -24.99999983	     20.89446363	    -25.92719143	      3.19209656	     32.58667377	     94.74746152	    -13.58741999	     35.00000010
1760624601.66899991	     10.53737177	      0.27667107	      8.56498277	      0.03698428	      0.90858775	      0.00277344	     80.00000000	     -7.00000000	      0.00000000	     80.00000000	      1.39626340	      0.00000000	      0.00000000	      0.00000000	     80.00000000	     -7.00000000	      0.00000000	     80.00000000	      1.39626340	      0.00000000	      0.00000000	      0.00000000	    -15.93004444	      2.41315169	      2.84218669	    -20.11145336	    -26.78337049	     -7.50879045	      0.00000000	     57.37961027	     70.00000021	    -24.99999983	     23.53732578	    -28.53198340	      2.54393560	     26.32441298	     93.94698043	    -12.80108833	     28.99515733
1760624601.70300007	     10.69331469	      0.31202202	      8.75571228	      0.03888644	      0.90892486	      0.00281285	     80.00000000	     -7.00000000	      0.00000000	     80.00000000	      1.39626340	      0.00000000	      0.00000000	      0.00000000	     80.00000000	     -7.00000000	      0.00000000	     80.00000000	      1.39626340	      0.00000000	      0.00000000	      0.00000000	    -16.41851400	      2.43271379	      2.92200205	    -23.68291291	    -29.30256543	    -12.08459754	      0.00000000	     59.27573131	     70.00000021	    -24.99999983	     27.35153041	    -31.55756955	      3.22557528	     21.13876165	     92.01656386	    -12.91097856	     23.55509056
1760624601.73600006	     10.78981765	      0.14720794	      8.95752940	      0.03887384	      0.91222190	      0.00422104	     80.00000000	     -7.00000000	      0.00000000	     80.00000000	      1.39626340	      0.00000000	      0.00000000	      0.00000000	     80.00000000	     -7.00000000	      0.00000000	     80.00000000	      1.39626340	      0.00000000	      0.00000000	      0.00000000	    -16.65474256	      2.91166895	      3.07230944	    -26.69520358	    -31.41374905	    -16.16301878	      0.00000000	     60.87848732	     70.00000021	    -24.99999983	     29.74861458	    -33.69997998	      3.73316188	     14.11303473	     90.10684768	    -12.04811185	     15.76469435
1760624601.76999998	     11.02212289	     -0.22900833	      9.31941614	      0.03645488	      0.91787294	      0.00723137	     80.00000000	     -7.00000000	      0.00000000	     80.00000000	      1.39626340	      0.00000000	      0.00000000	      0.00000000	     80.00000000	     -7.00000000	      0.00000000	     80.00000000	      1.39626340	      0.00000000	      0.00000000	      0.00000000	    -17.00827972	      3.41331639	      3.23947922	    -29.68765195	    -33.24342432	    -20.69107600	      0.00000000	     62.74810351	     70.00000021	    -24.99999983	     32.63765738	    -35.96842697	      3.60561958	     11.15146741	     90.12302051	    -11.59976467	     12.42373436
